<svg width="26" height="26" viewBox="0 0 26 26" fill="none" xmlns="http://www.w3.org/2000/svg">
<path d="M13 11.375C13.2155 11.375 13.4222 11.4606 13.5745 11.613C13.7269 11.7653 13.8125 11.972 13.8125 12.1875V14.625H16.25C16.4655 14.625 16.6722 14.7106 16.8245 14.863C16.9769 15.0153 17.0625 15.222 17.0625 15.4375C17.0625 15.653 16.9769 15.8597 16.8245 16.012C16.6722 16.1644 16.4655 16.25 16.25 16.25H13.8125V18.6875C13.8125 18.903 13.7269 19.1097 13.5745 19.262C13.4222 19.4144 13.2155 19.5 13 19.5C12.7845 19.5 12.5778 19.4144 12.4255 19.262C12.2731 19.1097 12.1875 18.903 12.1875 18.6875V16.25H9.75C9.53451 16.25 9.32785 16.1644 9.17548 16.012C9.0231 15.8597 8.9375 15.653 8.9375 15.4375C8.9375 15.222 9.0231 15.0153 9.17548 14.863C9.32785 14.7106 9.53451 14.625 9.75 14.625H12.1875V12.1875C12.1875 11.972 12.2731 11.7653 12.4255 11.613C12.5778 11.4606 12.7845 11.375 13 11.375Z" fill="white"/>
<path d="M5.6875 0C5.90299 0 6.10965 0.0856024 6.26202 0.237976C6.4144 0.390349 6.5 0.597012 6.5 0.8125V1.625H19.5V0.8125C19.5 0.597012 19.5856 0.390349 19.738 0.237976C19.8903 0.0856024 20.097 0 20.3125 0C20.528 0 20.7347 0.0856024 20.887 0.237976C21.0394 0.390349 21.125 0.597012 21.125 0.8125V1.625H22.75C23.612 1.625 24.4386 1.96741 25.0481 2.5769C25.6576 3.1864 26 4.01305 26 4.875V22.75C26 23.612 25.6576 24.4386 25.0481 25.0481C24.4386 25.6576 23.612 26 22.75 26H3.25C2.38805 26 1.5614 25.6576 0.951903 25.0481C0.34241 24.4386 0 23.612 0 22.75V4.875C0 4.01305 0.34241 3.1864 0.951903 2.5769C1.5614 1.96741 2.38805 1.625 3.25 1.625H4.875V0.8125C4.875 0.597012 4.9606 0.390349 5.11298 0.237976C5.26535 0.0856024 5.47201 0 5.6875 0V0ZM1.625 6.5V22.75C1.625 23.181 1.7962 23.5943 2.10095 23.899C2.4057 24.2038 2.81902 24.375 3.25 24.375H22.75C23.181 24.375 23.5943 24.2038 23.899 23.899C24.2038 23.5943 24.375 23.181 24.375 22.75V6.5H1.625Z" fill="white"/>
</svg>
