<svg width="70" height="65" viewBox="0 0 70 65" fill="none" xmlns="http://www.w3.org/2000/svg">
  <path
    d="M37.6252 20.1221L40.4325 2.51367C40.6634 1.06641 41.8665 0 43.2763 0C44.1877 0 45.0384 0.444336 45.5853 1.20605L47.6391 4.0625H53.9707C55.5141 4.0625 56.9967 4.70996 58.0905 5.85254L60.278 8.125H67.0836C68.6999 8.125 70.0002 9.4834 70.0002 11.1719V14.2188C70.0002 19.8301 65.6495 24.375 60.278 24.375H51.8561L51.2363 28.2471L37.6252 20.1221ZM50.5558 32.5127V60.9375C50.5558 63.1846 48.8179 65 46.6669 65H42.778C40.627 65 38.8891 63.1846 38.8891 60.9375V46.3125C35.9724 47.874 32.6669 48.75 29.1669 48.75C25.6669 48.75 22.3613 47.874 19.4447 46.3125V60.9375C19.4447 63.1846 17.7068 65 15.5558 65H11.6669C9.51585 65 7.778 63.1846 7.778 60.9375V31.7129C4.278 30.3291 1.53147 27.2314 0.583553 23.2705L0.121748 21.3027C-0.400822 19.1318 0.863067 16.9229 2.95335 16.377C5.04362 15.8311 7.14605 17.1514 7.66862 19.335L8.14258 21.3027C8.56793 23.1055 10.1235 24.375 11.9099 24.375H36.9204L50.5558 32.5127ZM56.3891 10.1562C56.3891 9.03906 55.5141 8.125 54.4447 8.125C53.3752 8.125 52.5002 9.03906 52.5002 10.1562C52.5002 11.2734 53.3752 12.1875 54.4447 12.1875C55.5141 12.1875 56.3891 11.2734 56.3891 10.1562Z" />
</svg>