<svg width="31" height="31" viewBox="0 0 31 31" fill="none" xmlns="http://www.w3.org/2000/svg">
<path d="M16.6936 3.7108C17.3384 3.2458 18.0886 3.1001 18.6001 3.1001H20.8414C21.5436 3.10004 22.2326 3.29077 22.8347 3.6519L25.5984 5.3104C25.8276 5.44814 26.0174 5.64286 26.1491 5.87563C26.2808 6.1084 26.3501 6.37129 26.3501 6.63875V8.5251C26.3501 9.14173 26.1052 9.7331 25.6692 10.1691C25.2331 10.6051 24.6418 10.8501 24.0251 10.8501H23.2501V23.309C23.9027 23.4097 24.5568 23.6531 25.1024 24.1072C25.8929 24.7644 26.3501 25.7766 26.3501 27.1251C26.3501 27.3306 26.2685 27.5278 26.1231 27.6731C25.9778 27.8184 25.7807 27.9001 25.5751 27.9001H7.75013C6.77457 27.9002 5.82369 27.5935 5.03207 27.0234C4.24045 26.4532 3.6482 25.6486 3.33913 24.7233C3.03007 23.7979 3.01985 22.7989 3.30993 21.8674C3.60001 20.936 4.17569 20.1194 4.95548 19.5332C5.12 19.4145 5.3245 19.3651 5.52508 19.3955C5.72565 19.4259 5.9063 19.5337 6.02825 19.6958C6.15019 19.858 6.20371 20.0614 6.17731 20.2626C6.1509 20.4637 6.04669 20.6465 5.88703 20.7716C5.36695 21.1624 4.98297 21.7068 4.78945 22.3279C4.59593 22.9489 4.60268 23.6151 4.80875 24.2321C5.01482 24.8491 5.40976 25.3857 5.93765 25.7658C6.46554 26.1459 7.09963 26.3503 7.75013 26.3501C8.19653 26.3501 8.47863 26.2416 8.66463 26.1176C8.84853 25.9907 8.99558 25.8175 9.09088 25.6154C9.21538 25.3607 9.28658 25.0833 9.30013 24.8001V24.7303L9.30633 24.5598C9.35773 23.6627 9.49265 22.7722 9.70933 21.9C10.117 20.2725 10.9431 18.1862 12.6264 16.5014C15.4846 13.6447 15.5001 9.81315 15.5001 8.5251V6.2001C15.5001 5.01745 16.0116 4.2037 16.6936 3.7108ZM16.9323 10.6951C16.6921 12.6419 15.9574 15.3637 13.7238 17.5988C12.3071 19.0139 11.5833 20.8026 11.2144 22.2751C11.0222 23.0472 10.9018 23.8354 10.8548 24.6296C10.8527 24.6745 10.8512 24.7195 10.8501 24.7644V24.8512L10.8439 24.9551C10.8097 25.4414 10.6779 25.9158 10.4564 26.3501H20.0246C19.8696 25.8541 19.5549 25.3441 19.014 25.0605C18.645 24.8776 18.2368 24.7882 17.8251 24.8001H16.2751C16.0696 24.8001 15.8725 24.7184 15.7271 24.5731C15.5818 24.4278 15.5001 24.2306 15.5001 24.0251C15.5001 23.8196 15.5818 23.6224 15.7271 23.4771C15.8725 23.3317 16.0696 23.2501 16.2751 23.2501H17.8251C18.0979 23.2501 18.3552 23.2718 18.6001 23.3121V19.3751C18.6001 19.1696 18.6818 18.9724 18.8271 18.8271C18.9725 18.6817 19.1696 18.6001 19.3751 18.6001C19.5807 18.6001 19.7778 18.6817 19.9231 18.8271C20.0685 18.9724 20.1501 19.1696 20.1501 19.3751V23.9445C21.0491 24.5924 21.463 25.5565 21.6195 26.3501H24.7195C24.6033 25.8417 24.3708 25.5146 24.1104 25.2992C23.712 24.9659 23.1339 24.8001 22.4751 24.8001C22.2696 24.8001 22.0725 24.7184 21.9271 24.5731C21.7818 24.4278 21.7001 24.2306 21.7001 24.0251V10.0751C21.7001 9.86955 21.7818 9.67243 21.9271 9.52709C22.0725 9.38175 22.2696 9.3001 22.4751 9.3001H24.0251C24.2307 9.3001 24.4278 9.21845 24.5731 9.0731C24.7185 8.92776 24.8001 8.73064 24.8001 8.5251V6.63875L22.038 4.98025C21.6765 4.76379 21.2628 4.64967 20.8414 4.6501H18.6001C18.3366 4.6501 17.9243 4.73535 17.6004 4.9694C17.3136 5.174 17.0501 5.52275 17.0501 6.2001V8.5251C17.0501 8.65995 17.0966 8.8785 17.2144 9.04125C17.3028 9.16525 17.4578 9.3001 17.8251 9.3001C18.1925 9.3001 18.3475 9.1637 18.4358 9.04125C18.539 8.88855 18.5961 8.70936 18.6001 8.5251C18.6001 8.31955 18.6818 8.12243 18.8271 7.97709C18.9725 7.83175 19.1696 7.7501 19.3751 7.7501C19.5807 7.7501 19.7778 7.83175 19.9231 7.97709C20.0685 8.12243 20.1501 8.31955 20.1501 8.5251C20.1501 8.90795 20.0416 9.4644 19.6944 9.94645C19.3178 10.4688 18.6978 10.8501 17.8251 10.8501C17.5206 10.853 17.2181 10.8005 16.9323 10.6951ZM10.8501 24.8016L10.0751 24.8001L10.8501 24.8016Z" fill="white"/>
</svg>
