<svg width="44" height="44" viewBox="0 0 44 44" fill="none" xmlns="http://www.w3.org/2000/svg">
<rect width="44" height="44" rx="10" fill="#F2F8FF"/>
<path d="M22.6934 9.71031C23.3382 9.24531 24.0884 9.09961 24.5999 9.09961H26.8412C27.5433 9.09955 28.2323 9.29028 28.8345 9.65141L31.5981 11.3099C31.8274 11.4477 32.0171 11.6424 32.1489 11.8751C32.2806 12.1079 32.3498 12.3708 32.3499 12.6383V14.5246C32.3499 15.1412 32.1049 15.7326 31.6689 16.1686C31.2329 16.6047 30.6415 16.8496 30.0249 16.8496H29.2499V29.3085C29.9024 29.4093 30.5565 29.6526 31.1021 30.1068C31.8926 30.764 32.3499 31.7761 32.3499 33.1246C32.3499 33.3302 32.2682 33.5273 32.1229 33.6726C31.9776 33.818 31.7804 33.8996 31.5749 33.8996H13.7499C12.7743 33.8997 11.8234 33.593 11.0318 33.0229C10.2402 32.4527 9.64795 31.6481 9.33889 30.7228C9.02982 29.7975 9.01961 28.7984 9.30969 27.867C9.59976 26.9355 10.1754 26.1189 10.9552 25.5327C11.1198 25.414 11.3243 25.3646 11.5248 25.395C11.7254 25.4254 11.9061 25.5332 12.028 25.6954C12.15 25.8575 12.2035 26.061 12.1771 26.2621C12.1507 26.4632 12.0464 26.646 11.8868 26.7712C11.3667 27.1619 10.9827 27.7063 10.7892 28.3274C10.5957 28.9484 10.6024 29.6146 10.8085 30.2316C11.0146 30.8486 11.4095 31.3852 11.9374 31.7653C12.4653 32.1454 13.0994 32.3498 13.7499 32.3496C14.1963 32.3496 14.4784 32.2411 14.6644 32.1171C14.8483 31.9902 14.9953 31.817 15.0906 31.6149C15.2151 31.3602 15.2863 31.0828 15.2999 30.7996V30.7299L15.3061 30.5594C15.3575 29.6622 15.4924 28.7717 15.7091 27.8996C16.1167 26.2721 16.9429 24.1858 18.6262 22.5009C21.4844 19.6443 21.4999 15.8127 21.4999 14.5246V12.1996C21.4999 11.017 22.0114 10.2032 22.6934 9.71031ZM22.9321 16.6946C22.6918 18.6414 21.9571 21.3632 19.7236 23.5983C18.3069 25.0135 17.583 26.8022 17.2141 28.2747C17.022 29.0467 16.9016 29.8349 16.8545 30.6291C16.8525 30.674 16.8509 30.719 16.8499 30.764V30.8508L16.8437 30.9546C16.8094 31.4409 16.6776 31.9153 16.4562 32.3496H26.0243C25.8693 31.8536 25.5547 31.3437 25.0137 31.06C24.6448 30.8772 24.2365 30.7877 23.8249 30.7996H22.2749C22.0693 30.7996 21.8722 30.718 21.7269 30.5726C21.5815 30.4273 21.4999 30.2302 21.4999 30.0246C21.4999 29.8191 21.5815 29.6219 21.7269 29.4766C21.8722 29.3313 22.0693 29.2496 22.2749 29.2496H23.8249C24.0977 29.2496 24.355 29.2713 24.5999 29.3116V25.3746C24.5999 25.1691 24.6815 24.9719 24.8269 24.8266C24.9722 24.6813 25.1693 24.5996 25.3749 24.5996C25.5804 24.5996 25.7776 24.6813 25.9229 24.8266C26.0682 24.9719 26.1499 25.1691 26.1499 25.3746V29.944C27.0489 30.5919 27.4627 31.556 27.6193 32.3496H30.7193C30.603 31.8412 30.3705 31.5142 30.1101 31.2987C29.7118 30.9655 29.1336 30.7996 28.4749 30.7996C28.2693 30.7996 28.0722 30.718 27.9269 30.5726C27.7815 30.4273 27.6999 30.2302 27.6999 30.0246V16.0746C27.6999 15.8691 27.7815 15.6719 27.9269 15.5266C28.0722 15.3813 28.2693 15.2996 28.4749 15.2996H30.0249C30.2304 15.2996 30.4276 15.218 30.5729 15.0726C30.7182 14.9273 30.7999 14.7302 30.7999 14.5246V12.6383L28.0378 10.9798C27.6762 10.7633 27.2626 10.6492 26.8412 10.6496H24.5999C24.3364 10.6496 23.9241 10.7349 23.6001 10.9689C23.3134 11.1735 23.0499 11.5223 23.0499 12.1996V14.5246C23.0499 14.6595 23.0964 14.878 23.2142 15.0408C23.3025 15.1648 23.4575 15.2996 23.8249 15.2996C24.1922 15.2996 24.3472 15.1632 24.4356 15.0408C24.5388 14.8881 24.5958 14.7089 24.5999 14.5246C24.5999 14.3191 24.6815 14.1219 24.8269 13.9766C24.9722 13.8313 25.1693 13.7496 25.3749 13.7496C25.5804 13.7496 25.7776 13.8313 25.9229 13.9766C26.0682 14.1219 26.1499 14.3191 26.1499 14.5246C26.1499 14.9075 26.0414 15.4639 25.6942 15.946C25.3175 16.4683 24.6975 16.8496 23.8249 16.8496C23.5204 16.8525 23.2178 16.8 22.9321 16.6946ZM16.8499 30.8012L16.0749 30.7996L16.8499 30.8012Z" fill="#124C8F"/>
</svg>
