<svg width="20" height="20" viewBox="0 0 20 20" fill="none" xmlns="http://www.w3.org/2000/svg">
<path d="M9.99967 8.33398C9.08301 8.33398 8.33301 9.08398 8.33301 10.0007C8.33301 10.9173 9.08301 11.6673 9.99967 11.6673C10.9163 11.6673 11.6663 10.9173 11.6663 10.0007C11.6663 9.08398 10.9163 8.33398 9.99967 8.33398ZM9.99967 3.33398C9.08301 3.33398 8.33301 4.08398 8.33301 5.00065C8.33301 5.91732 9.08301 6.66732 9.99967 6.66732C10.9163 6.66732 11.6663 5.91732 11.6663 5.00065C11.6663 4.08398 10.9163 3.33398 9.99967 3.33398ZM9.99967 13.334C9.08301 13.334 8.33301 14.084 8.33301 15.0007C8.33301 15.9173 9.08301 16.6673 9.99967 16.6673C10.9163 16.6673 11.6663 15.9173 11.6663 15.0007C11.6663 14.084 10.9163 13.334 9.99967 13.334Z" fill="#737373"/>
</svg>
