<svg width="31" height="31" viewBox="0 0 31 31" fill="none" xmlns="http://www.w3.org/2000/svg">
<path d="M23.9163 3.9043C23.1054 3.9043 22.3198 4.23077 21.7056 4.84398L21.6155 4.93505L21.01 4.35961L20.3435 5.02611L5.23684 20.1309L5.02565 20.344L4.96462 20.6472L3.9048 25.9753L3.60449 27.3975L5.02565 27.0971L10.3538 26.0364L10.657 25.9753L10.8701 25.7641L25.972 10.6565L26.6385 9.98998L26.063 9.41552L26.1241 9.35352L26.1531 9.29345C26.4455 9.00154 26.6776 8.65486 26.836 8.27324C26.9944 7.89162 27.0761 7.48252 27.0764 7.06932C27.0767 6.65612 26.9955 6.24692 26.8376 5.86509C26.6797 5.48326 26.4481 5.13628 26.156 4.84398C25.5626 4.24699 24.757 3.90915 23.9153 3.9043H23.9163ZM23.9163 5.81273C24.2166 5.81273 24.5363 5.94836 24.794 6.20605C25.3103 6.72336 25.3103 7.41505 24.794 7.93236L24.7029 8.02245L22.9785 6.29808L23.0686 6.20702C23.3263 5.94933 23.614 5.8137 23.9163 5.8137V5.81273ZM21.0391 7.0847L23.9163 9.95995L22.5232 11.384L19.617 8.47777L21.041 7.0847H21.0391ZM18.2849 9.86986L21.1311 12.7151L11.0193 22.8579L10.626 21.1006L10.5039 20.4961L9.89846 20.375L8.14115 19.9826L18.284 9.87083L18.2849 9.86986ZM6.75196 21.645L8.86965 22.1294L9.35402 24.248L7.38746 24.6423L6.35671 23.6135L6.75099 21.647L6.75196 21.645Z" fill="white"/>
</svg>
