<svg width="16" height="16" viewBox="0 0 16 16" fill="none" xmlns="http://www.w3.org/2000/svg">
<path d="M9.75719 9.13467e-07C9.83245 -0.000133498 9.90699 0.0145668 9.97656 0.0432615C10.0461 0.0719563 10.1094 0.114083 10.1627 0.167232L15.8323 5.83706C15.9397 5.94446 16 6.0901 16 6.24197C16 6.39383 15.9397 6.53947 15.8323 6.64687C15.2825 7.19667 14.6045 7.32038 14.1108 7.32038C13.9081 7.32038 13.7271 7.29976 13.5839 7.27571L9.99428 10.8655C10.0888 11.2462 10.1501 11.6344 10.1775 12.0258C10.2302 12.8298 10.1409 13.9581 9.35287 14.7461C9.24547 14.8535 9.09983 14.9138 8.94797 14.9138C8.79611 14.9138 8.65047 14.8535 8.54308 14.7461L5.30278 11.5069L1.65815 15.1516C1.4348 15.375 0.261925 16.1848 0.0385747 15.9614C-0.184776 15.7381 0.625013 14.564 0.848364 14.3418L4.49299 10.6971L1.25383 7.45668C1.14647 7.34928 1.08615 7.20364 1.08615 7.05178C1.08615 6.89992 1.14647 6.75427 1.25383 6.64687C2.04186 5.85882 3.17006 5.76833 3.97413 5.82217C4.36546 5.84959 4.75367 5.91091 5.1344 6.00544L8.72405 2.41684C8.69409 2.24241 8.67876 2.06578 8.67823 1.8888C8.67823 1.39627 8.80194 0.718179 9.35287 0.167232C9.4602 0.060171 9.60559 3.31215e-05 9.75719 9.13467e-07Z" fill="#0A2B52"/>
</svg>
