<svg width="17" height="17" viewBox="0 0 17 17" fill="none" xmlns="http://www.w3.org/2000/svg">
<path d="M14.8523 13.1475C14.462 12.7736 14.0822 12.3891 13.7132 11.9942C13.4032 11.6792 13.2165 11.45 13.2165 11.45L10.8832 10.3358C11.8173 9.27637 12.3329 7.9125 12.3332 6.5C12.3332 3.28417 9.7165 0.666672 6.49984 0.666672C3.28317 0.666672 0.666504 3.28417 0.666504 6.5C0.666504 9.71584 3.28317 12.3333 6.49984 12.3333C7.969 12.3333 9.30817 11.7833 10.3357 10.8842L11.4498 13.2175C11.4498 13.2175 11.679 13.4042 11.994 13.7142C12.3165 14.0167 12.7407 14.4258 13.1473 14.8533L14.279 16.0133L14.7823 16.5517L16.5498 14.7842L16.0115 14.2808C15.6957 13.9708 15.274 13.5592 14.8523 13.1475ZM6.49984 10.6667C4.20234 10.6667 2.33317 8.7975 2.33317 6.5C2.33317 4.20251 4.20234 2.33334 6.49984 2.33334C8.79734 2.33334 10.6665 4.20251 10.6665 6.5C10.6665 8.7975 8.79734 10.6667 6.49984 10.6667Z" fill="black"/>
</svg>
