<?xml version="1.0" encoding="iso-8859-1"?>
<!-- Generator: Adobe Illustrator 19.0.0, SVG Export Plug-In . SVG Version: 6.00 Build 0)  -->
<svg version="1.1" id="Layer_1" xmlns="http://www.w3.org/2000/svg" xmlns:xlink="http://www.w3.org/1999/xlink" x="0px" y="0px"
	 viewBox="0 0 512 512" style="enable-background:new 0 0 512 512;" xml:space="preserve">
<g>
	<g>
		<path d="M174.107,483.506H31.932c-7.887,0-14.303-6.416-14.303-14.303V83.32c0-12.914,32.511-32.337,103.891-44.464
			c4.799-0.816,8.03-5.366,7.214-10.166c-0.816-4.799-5.369-8.028-10.166-7.214C74.286,28.999,0,47.039,0,83.32v385.883
			c0,17.607,14.326,31.932,31.932,31.932h142.175c4.868,0,8.815-3.947,8.815-8.815C182.922,487.453,178.975,483.506,174.107,483.506
			z"/>
	</g>
</g>
<g>
	<g>
		<path d="M432.985,29.782c-47.384-12.199-110.239-18.918-176.984-18.918c-35.383,0-69.601,1.872-101.705,5.564
			c-4.836,0.557-8.306,4.928-7.75,9.764c0.556,4.835,4.92,8.303,9.764,7.75c31.438-3.615,64.978-5.449,99.691-5.449
			c65.306,0,126.599,6.52,172.589,18.363c48.554,12.501,65.783,27.456,65.783,36.465v385.883c0,7.887-6.417,14.303-14.304,14.303
			H209.366c-4.868,0-8.815,3.947-8.815,8.815c0,4.868,3.947,8.815,8.815,8.815h270.701C497.674,501.135,512,486.811,512,469.203
			V83.32C512,61.294,485.415,43.281,432.985,29.782z"/>
	</g>
</g>
<g>
	<g>
		<path d="M405.58,62.337l-1.178-0.247C362.703,53.504,310,48.776,256.001,48.776c-53.998,0-106.701,4.728-148.401,13.315
			l-1.178,0.247c-4.088,0.852-7.015,4.454-7.015,8.629v92.779c0,4.869,3.947,8.815,8.815,8.815h115.645h64.269h0.023h115.62
			c4.868,0,8.815-3.945,8.815-8.815V70.966C412.594,66.792,409.665,63.19,405.58,62.337z M234.41,154.931
			c3.484-8.501,11.849-14.505,21.59-14.505c9.741,0,18.106,6.003,21.59,14.505H234.41z M394.964,154.931h-98.97
			c-3.417-15.516-15.663-27.75-31.179-31.167V84.369c0-4.868-3.947-8.815-8.815-8.815s-8.815,3.947-8.815,8.815v39.394
			c-15.514,3.418-27.751,15.654-31.168,31.168h-98.982V78.187c1.513-0.292,3.065-0.567,4.606-0.849l19.47,22.946
			c1.743,2.054,4.226,3.111,6.725,3.111c2.016,0,4.042-0.688,5.699-2.093c3.712-3.15,4.168-8.712,1.018-12.424l-12.595-14.845
			c12.775-1.839,26.226-3.37,40.164-4.559l9.275,20.654c1.468,3.268,4.681,5.205,8.046,5.205c1.207,0,2.434-0.249,3.606-0.776
			c4.441-1.994,6.424-7.21,4.431-11.653l-6.65-14.81c17.936-1.115,36.465-1.694,55.172-1.694s37.236,0.579,55.172,1.694
			l-6.651,14.81c-1.994,4.441-0.011,9.658,4.43,11.653c1.173,0.526,2.4,0.776,3.606,0.776c3.365,0,6.578-1.937,8.046-5.205
			l9.275-20.654c13.938,1.189,27.388,2.718,40.164,4.559l-12.596,14.845c-3.15,3.713-2.694,9.275,1.019,12.424
			c1.657,1.406,3.682,2.093,5.698,2.093c2.499,0,4.982-1.057,6.726-3.111l19.469-22.946c1.54,0.281,3.092,0.557,4.605,0.849V154.931
			z"/>
	</g>
</g>
<g>
	<g>
		<path d="M440.228,199.825h-52.194c-4.868,0-8.815,3.947-8.815,8.815c0,4.868,3.947,8.815,8.815,8.815h52.194
			c5.606,0,10.165,4.56,10.165,10.165v202.733c0,5.606-4.56,10.165-10.165,10.165H71.771c-5.605,0-10.165-4.56-10.165-10.165
			V227.619c0-5.606,4.56-10.165,10.165-10.165h281.005c4.868,0,8.815-3.947,8.815-8.815c0-4.868-3.947-8.815-8.815-8.815H71.771
			c-15.326,0-27.794,12.469-27.794,27.794v202.733c0,15.326,12.469,27.794,27.794,27.794h368.457
			c15.327,0,27.794-12.469,27.794-27.794V227.619C468.022,212.294,455.554,199.825,440.228,199.825z"/>
	</g>
</g>
<g>
</g>
<g>
</g>
<g>
</g>
<g>
</g>
<g>
</g>
<g>
</g>
<g>
</g>
<g>
</g>
<g>
</g>
<g>
</g>
<g>
</g>
<g>
</g>
<g>
</g>
<g>
</g>
<g>
</g>
</svg>
