<svg width="16" height="16" viewBox="0 0 16 16" fill="none" xmlns="http://www.w3.org/2000/svg">
<path d="M7.88443 7.11111L7.65332 8H8.37777L8.14221 7.11111H7.88443Z" fill="#1A70D2"/>
<path d="M5.30684 8H6.5024L6.73796 7.11111H5.07129L5.30684 8V8Z" fill="#1A70D2"/>
<path d="M5.90644 10.2667L6.26644 8.88889H5.54199L5.90644 10.2667Z" fill="#1A70D2"/>
<path d="M9.52901 8H10.7246L10.9601 7.11111H9.29346L9.52901 8V8Z" fill="#1A70D2"/>
<path d="M10.1246 10.2667L10.4891 8.88889H9.76465L10.1246 10.2667Z" fill="#1A70D2"/>
<path d="M7.99979 0.888885C6.59334 0.888885 5.21848 1.30594 4.04906 2.08732C2.87965 2.8687 1.9682 3.97931 1.42998 5.27869C0.891753 6.57808 0.750929 8.00788 1.02531 9.38731C1.2997 10.7667 1.97696 12.0338 2.97147 13.0283C3.96598 14.0228 5.23306 14.7001 6.61248 14.9745C7.9919 15.2489 9.4217 15.108 10.7211 14.5698C12.0205 14.0316 13.1311 13.1201 13.9125 11.9507C14.6938 10.7813 15.1109 9.40644 15.1109 8C15.1109 6.11401 14.3617 4.30527 13.0281 2.97168C11.6945 1.63809 9.88577 0.888885 7.99979 0.888885V0.888885ZM12.8887 8.88889H11.6398L10.6665 12.5867C10.6356 12.7058 10.566 12.8113 10.4687 12.8866C10.3713 12.9619 10.2517 13.0028 10.1287 13.0028C10.0056 13.0028 9.88602 12.9619 9.78868 12.8866C9.69135 12.8113 9.62178 12.7058 9.5909 12.5867L8.61312 8.88889H7.41756L6.44423 12.5867C6.41335 12.7058 6.34378 12.8113 6.24644 12.8866C6.14911 12.9619 6.02952 13.0028 5.90645 13.0028C5.78338 13.0028 5.66379 12.9619 5.56646 12.8866C5.46913 12.8113 5.39956 12.7058 5.36868 12.5867L4.3909 8.88889H3.1109C2.99302 8.88889 2.87998 8.84206 2.79663 8.75871C2.71328 8.67536 2.66645 8.56232 2.66645 8.44444C2.66645 8.32657 2.71328 8.21352 2.79663 8.13017C2.87998 8.04682 2.99302 8 3.1109 8H4.15534L3.91979 7.11111H3.1109C2.99302 7.11111 2.87998 7.06428 2.79663 6.98093C2.71328 6.89758 2.66645 6.78454 2.66645 6.66666C2.66645 6.54879 2.71328 6.43574 2.79663 6.35239C2.87998 6.26904 2.99302 6.22222 3.1109 6.22222H3.68868L3.24423 4.58666C3.20651 4.44404 3.22699 4.29227 3.30118 4.16474C3.37536 4.03722 3.49716 3.94438 3.63979 3.90666C3.78241 3.86894 3.93418 3.88943 4.06171 3.96361C4.18923 4.03779 4.28207 4.15959 4.31979 4.30222L4.83534 6.22222H6.96868L7.47534 4.30222C7.50623 4.18309 7.5758 4.07758 7.67313 4.00226C7.77046 3.92695 7.89005 3.88608 8.01312 3.88608C8.13619 3.88608 8.25578 3.92695 8.35311 4.00226C8.45044 4.07758 8.52001 4.18309 8.5509 4.30222L9.05756 6.22222H11.1909L11.6976 4.30222C11.7353 4.15959 11.8281 4.03779 11.9556 3.96361C12.0832 3.88943 12.2349 3.86894 12.3776 3.90666C12.5202 3.94438 12.642 4.03722 12.7162 4.16474C12.7904 4.29227 12.8108 4.44404 12.7731 4.58666L12.3287 6.22222H12.8887C13.0065 6.22222 13.1196 6.26904 13.2029 6.35239C13.2863 6.43574 13.3331 6.54879 13.3331 6.66666C13.3331 6.78454 13.2863 6.89758 13.2029 6.98093C13.1196 7.06428 13.0065 7.11111 12.8887 7.11111H12.1065L11.8709 8H12.8887C13.0065 8 13.1196 8.04682 13.2029 8.13017C13.2863 8.21352 13.3331 8.32657 13.3331 8.44444C13.3331 8.56232 13.2863 8.67536 13.2029 8.75871C13.1196 8.84206 13.0065 8.88889 12.8887 8.88889Z" fill="#1A70D2"/>
</svg>
