<svg width="16" height="16" viewBox="0 0 16 16" fill="none" xmlns="http://www.w3.org/2000/svg">
<g clip-path="url(#clip0_1311_5621)">
<path d="M14.526 0.986663L14.9194 1.38C15.4614 1.92266 15.3794 2.88466 14.7347 3.52866L6.62337 11.64L3.99537 12.6013C3.66537 12.7227 3.34404 12.5653 3.2787 12.2513C3.25662 12.1374 3.26702 12.0196 3.3087 11.9113L4.2887 9.26066L12.3774 1.17133C13.022 0.52733 13.984 0.444663 14.526 0.98733V0.986663ZM6.26937 1.79333C6.35692 1.79333 6.44361 1.81057 6.52449 1.84408C6.60537 1.87758 6.67887 1.92669 6.74077 1.98859C6.80268 2.0505 6.85178 2.12399 6.88529 2.20487C6.91879 2.28576 6.93603 2.37245 6.93603 2.46C6.93603 2.54754 6.91879 2.63424 6.88529 2.71512C6.85178 2.796 6.80268 2.8695 6.74077 2.9314C6.67887 2.99331 6.60537 3.04241 6.52449 3.07592C6.44361 3.10942 6.35692 3.12666 6.26937 3.12666H3.6027C3.24908 3.12666 2.90994 3.26714 2.65989 3.51719C2.40984 3.76724 2.26937 4.10637 2.26937 4.46V12.46C2.26937 12.8136 2.40984 13.1528 2.65989 13.4028C2.90994 13.6529 3.24908 13.7933 3.6027 13.7933H11.6027C11.9563 13.7933 12.2955 13.6529 12.5455 13.4028C12.7956 13.1528 12.936 12.8136 12.936 12.46V9.79333C12.936 9.61652 13.0063 9.44695 13.1313 9.32193C13.2563 9.1969 13.4259 9.12666 13.6027 9.12666C13.7795 9.12666 13.9491 9.1969 14.0741 9.32193C14.1991 9.44695 14.2694 9.61652 14.2694 9.79333V12.46C14.2694 13.1672 13.9884 13.8455 13.4883 14.3456C12.9882 14.8457 12.3099 15.1267 11.6027 15.1267H3.6027C2.89546 15.1267 2.21718 14.8457 1.71708 14.3456C1.21699 13.8455 0.936035 13.1672 0.936035 12.46V4.46C0.936035 3.75275 1.21699 3.07448 1.71708 2.57438C2.21718 2.07428 2.89546 1.79333 3.6027 1.79333H6.26937Z" fill="#124C8F"/>
</g>
<defs>
<clipPath id="clip0_1311_5621">
<rect width="16" height="16" fill="white"/>
</clipPath>
</defs>
</svg>
