<svg xmlns="http://www.w3.org/2000/svg" viewBox="0 0 96.09 85.48"><defs><style>.cls-1{fill:#fff;}.cls-2{fill:#1a70d2;}</style></defs><g id="Layer_2" data-name="Layer 2"><g id="Character"><path class="cls-1" d="M72.8,29.1q-.12.87-.27,1.68C70,45.05,61.64,44.79,58,41.88S46.87,16.24,47.3,11a11.27,11.27,0,0,1,1.64-5.4c1.18-1.83,3-3.1,5.51-4.34C58.88-.94,63.33-.41,67.74,4.1S75,13.13,72.8,29.1Z"/><path class="cls-1" d="M25.94,4.84A35.77,35.77,0,0,0,21.35,6c-.88.28-1.73.61-2.54,1a28,28,0,0,0-11,8.33,32.83,32.83,0,0,0-6,12.82c-.28,1.14-.52,2.31-.72,3.5A36.33,36.33,0,0,1,.85,27.4c0-16.12,3.68-21.27,7.71-24s10.18-3.81,14.27-1A20.36,20.36,0,0,1,25.94,4.84Z"/><path class="cls-1" d="M95.82,39.09a0,0,0,0,0,0,0c-.63-1.94-1.6-5.09-4.39-5.09s-7.25.27-12,.49c-.46,0-.91,0-1.37.06a5.61,5.61,0,0,1-5.51-3.74C70,45.05,61.64,44.79,58,41.88S46.87,16.24,47.3,11a11.27,11.27,0,0,1,1.64-5.4A48.73,48.73,0,0,0,35.83,4a52.83,52.83,0,0,0-9.89.85A35.77,35.77,0,0,0,21.35,6c-.88.28-1.73.61-2.54,1a28,28,0,0,0-11,8.33,32.83,32.83,0,0,0-6,12.82c-.28,1.14-.52,2.31-.72,3.5C.77,33.33.54,35.09.36,36.9c-.24,2.48-.36,5-.36,7.71A70.53,70.53,0,0,0,1.8,61.09,33.78,33.78,0,0,0,7.79,74a27.53,27.53,0,0,0,11,8.45q6.84,3,17,3t17.08-3a27,27,0,0,0,11-8.45,31.76,31.76,0,0,0,3.35-5.54.63.63,0,0,1,.34-.32l1-.37A56.54,56.54,0,0,0,88.88,54.07c4.24-4.53,6.65-8.81,7.08-11.23a9.11,9.11,0,0,0,.13-1.58A7.27,7.27,0,0,0,95.82,39.09ZM10.94,22.77a2.69,2.69,0,1,1,2.69,2.68A2.69,2.69,0,0,1,10.94,22.77ZM21.73,54.46a.62.62,0,0,1-1-.14,138.18,138.18,0,0,1-5.6-13.46c-.5-1.44-.92-2.74-1.21-3.82a6.4,6.4,0,0,1-.39-2.83c.15-.39,1-.58,2.35-.63a34.86,34.86,0,0,1,4,.16c6.07.53,14.34,2.19,14.73,3.21C35.19,38.55,25.24,50.55,21.73,54.46Zm16.35-29a2.68,2.68,0,1,1,2.68-2.68A2.68,2.68,0,0,1,38.08,25.45Z"/><path class="cls-2" d="M21.73,54.46a.62.62,0,0,1-1-.14,138.18,138.18,0,0,1-5.6-13.46c-.5-1.44-.92-2.74-1.21-3.82a6.4,6.4,0,0,1-.39-2.83c.15-.39,1-.58,2.35-.63a34.86,34.86,0,0,1,4,.16c6.07.53,14.34,2.19,14.73,3.21C35.19,38.55,25.24,50.55,21.73,54.46Z"/><path class="cls-2" d="M16.31,22.77a2.69,2.69,0,1,1-2.68-2.68A2.67,2.67,0,0,1,16.31,22.77Z"/><path class="cls-2" d="M40.76,22.77a2.69,2.69,0,1,1-2.68-2.68A2.68,2.68,0,0,1,40.76,22.77Z"/></g></g></svg>