<svg xmlns="http://www.w3.org/2000/svg" viewBox="0 0 96.09 85.48"><defs><style>.cls-1{fill:#1a70d2;}</style></defs><g id="Layer_2" data-name="Layer 2"><g id="Character"><path class="cls-1" d="M54.45,1.25C58.88-.94,63.33-.41,67.74,4.11s7.27,9,5.06,25S61.78,44.9,58,41.88,46.87,16.25,47.3,11,50,3.43,54.45,1.25Z"/><path class="cls-1" d="M25.94,4.84a20.36,20.36,0,0,0-3.11-2.53C18.74-.46,12.58.56,8.56,3.35S.84,11.28.85,27.4a36.33,36.33,0,0,0,.23,4.23C2.49,43.7,10,44.32,13.74,42.08a6.43,6.43,0,0,0,1.36-1.22c-.5-1.44-.92-2.74-1.21-3.82a6.4,6.4,0,0,1-.39-2.83c.15-.39,1-.58,2.35-.63a34.86,34.86,0,0,1,4,.16c4.19-7.4,8.54-17.42,8.73-20.81C28.79,9.25,27.89,6.88,25.94,4.84ZM13.63,25.45a2.68,2.68,0,1,1,2.68-2.68A2.68,2.68,0,0,1,13.63,25.45Z"/><path class="cls-1" d="M95.82,39.09a0,0,0,0,0,0,0c-.63-1.94-1.6-5.09-4.39-5.09s-7.25.27-12,.49c-.46,0-.91,0-1.37.06A5.62,5.62,0,0,1,72.5,30.7a32.11,32.11,0,0,0-4.57-8.51l-.05-.11a30.94,30.94,0,0,0-3.94-6.77A27.48,27.48,0,0,0,52.91,7Q46,4,35.83,4a52.83,52.83,0,0,0-9.89.85A35.77,35.77,0,0,0,21.35,6c-.88.28-1.73.61-2.54,1a28,28,0,0,0-11,8.33,32.83,32.83,0,0,0-6,12.82c-.28,1.14-.52,2.31-.72,3.5C.77,33.33.54,35.09.36,36.9c-.24,2.48-.36,5-.36,7.71A70.53,70.53,0,0,0,1.8,61.09,33.78,33.78,0,0,0,7.79,74a27.53,27.53,0,0,0,11,8.45q6.84,3,17,3t17.08-3a27,27,0,0,0,11-8.45,31.76,31.76,0,0,0,3.35-5.54.63.63,0,0,1,.34-.32l1-.37A56.54,56.54,0,0,0,88.88,54.07c4.24-4.53,6.65-8.81,7.08-11.23a9.11,9.11,0,0,0,.13-1.58A7.27,7.27,0,0,0,95.82,39.09Zm-82.19-19a2.68,2.68,0,1,1-2.69,2.68A2.68,2.68,0,0,1,13.63,20.09Zm8.1,34.37a.62.62,0,0,1-1-.14,138.18,138.18,0,0,1-5.6-13.46c-.5-1.44-.92-2.74-1.21-3.82a6.4,6.4,0,0,1-.39-2.83c.15-.39,1-.58,2.35-.63a34.86,34.86,0,0,1,4,.16c6.07.53,14.34,2.19,14.73,3.21C35.19,38.55,25.24,50.55,21.73,54.46Zm16.35-29a2.68,2.68,0,1,1,2.68-2.68A2.68,2.68,0,0,1,38.08,25.45Z"/></g></g></svg>