<svg id="svg" version="1.1" xmlns="http://www.w3.org/2000/svg" xmlns:xlink="http://www.w3.org/1999/xlink" width="400" height="400" viewBox="0, 0, 400,400"><g id="svgg"><path id="path0" d="M130.359 116.113 C 127.741 117.872,128.433 121.927,131.496 122.778 C 134.029 123.481,235.664 123.351,237.361 122.642 C 240.869 121.176,240.829 116.601,237.299 115.621 C 236.296 115.342,218.585 115.204,183.759 115.202 L 131.718 115.200 130.359 116.113 M121.569 137.969 C 120.065 139.474,119.985 141.473,121.365 143.078 L 122.331 144.200 183.865 144.296 C 232.963 144.373,245.602 144.290,246.400 143.884 C 248.803 142.664,248.966 138.977,246.678 137.582 C 245.426 136.819,244.155 136.803,184.069 136.801 L 122.738 136.800 121.569 137.969 M201.000 160.083 C 198.762 161.367,198.467 164.512,200.431 166.164 L 201.661 167.200 227.851 167.200 C 256.971 167.200,255.899 167.298,257.050 164.542 C 257.740 162.890,256.943 161.000,255.178 160.107 C 253.823 159.421,202.194 159.399,201.000 160.083 " stroke="none" fill="#f7f9fb" fill-rule="evenodd"></path><path id="path1" d="M292.400 136.800 C 292.400 137.020,291.860 137.200,291.200 137.200 C 290.540 137.200,290.000 137.380,290.000 137.600 C 290.000 137.820,289.500 138.000,288.888 138.000 C 288.235 138.000,287.539 138.330,287.200 138.800 C 286.883 139.240,286.385 139.600,286.094 139.600 C 285.238 139.600,283.604 141.481,283.348 142.760 C 283.055 144.227,302.263 202.000,303.045 202.000 C 303.313 202.000,303.607 202.220,303.696 202.489 C 303.882 203.047,306.000 201.117,306.000 200.390 C 306.000 198.940,307.931 198.395,308.800 199.600 C 309.139 200.070,309.835 200.400,310.488 200.400 C 311.100 200.400,311.600 200.580,311.600 200.800 C 311.600 201.020,312.140 201.200,312.800 201.200 C 313.460 201.200,314.000 201.380,314.000 201.600 C 314.000 201.848,316.133 202.000,319.600 202.000 C 323.067 202.000,325.200 201.848,325.200 201.600 C 325.200 201.380,325.740 201.200,326.400 201.200 C 327.060 201.200,327.600 201.020,327.600 200.800 C 327.600 200.580,327.960 200.400,328.400 200.400 C 328.840 200.400,329.200 200.220,329.200 200.000 C 329.200 199.780,329.560 199.600,330.000 199.600 C 330.440 199.600,330.800 199.420,330.800 199.200 C 330.800 198.980,331.073 198.800,331.406 198.800 C 332.197 198.800,338.000 192.997,338.000 192.206 C 338.000 191.873,338.180 191.600,338.400 191.600 C 338.620 191.600,338.800 191.240,338.800 190.800 C 338.800 190.360,338.980 190.000,339.200 190.000 C 339.420 190.000,339.600 189.640,339.600 189.200 C 339.600 188.760,339.780 188.400,340.000 188.400 C 340.220 188.400,340.400 187.860,340.400 187.200 C 340.400 186.540,340.580 186.000,340.800 186.000 C 341.049 186.000,341.200 183.733,341.200 180.000 C 341.200 176.267,341.049 174.000,340.800 174.000 C 340.580 174.000,340.400 173.460,340.400 172.800 C 340.400 172.140,340.220 171.600,340.000 171.600 C 339.780 171.600,339.600 171.240,339.600 170.800 C 339.600 170.360,339.420 170.000,339.200 170.000 C 338.980 170.000,338.800 169.640,338.800 169.200 C 338.800 168.760,338.620 168.400,338.400 168.400 C 338.180 168.400,338.000 168.127,338.000 167.794 C 338.000 167.460,336.653 165.840,335.006 164.194 C 333.360 162.547,331.740 161.200,331.406 161.200 C 331.073 161.200,330.800 161.020,330.800 160.800 C 330.800 160.580,330.440 160.400,330.000 160.400 C 329.560 160.400,329.200 160.220,329.200 160.000 C 329.200 159.780,328.840 159.600,328.400 159.600 C 327.960 159.600,327.600 159.420,327.600 159.200 C 327.600 158.980,327.060 158.800,326.400 158.800 C 325.740 158.800,325.200 158.620,325.200 158.400 C 325.200 158.171,324.000 158.000,322.400 158.000 L 319.600 158.000 319.600 154.800 C 319.600 152.933,319.433 151.600,319.200 151.600 C 318.980 151.600,318.800 151.060,318.800 150.400 C 318.800 149.740,318.620 149.200,318.400 149.200 C 318.180 149.200,318.000 148.840,318.000 148.400 C 318.000 147.960,317.820 147.600,317.600 147.600 C 317.380 147.600,317.200 147.312,317.200 146.960 C 317.200 146.609,316.660 145.817,316.000 145.200 C 315.340 144.583,314.800 143.873,314.800 143.621 C 314.800 143.027,312.973 141.200,312.379 141.200 C 312.127 141.200,311.417 140.660,310.800 140.000 C 310.183 139.340,309.391 138.800,309.040 138.800 C 308.688 138.800,308.400 138.620,308.400 138.400 C 308.400 138.180,307.860 138.000,307.200 138.000 C 306.540 138.000,306.000 137.820,306.000 137.600 C 306.000 137.380,305.460 137.200,304.800 137.200 C 304.140 137.200,303.600 137.020,303.600 136.800 C 303.600 136.552,301.467 136.400,298.000 136.400 C 294.533 136.400,292.400 136.552,292.400 136.800 M231.200 221.600 C 230.870 221.813,230.193 221.991,229.695 221.994 C 228.778 222.000,221.200 229.143,221.200 230.000 C 221.200 230.792,200.412 251.200,199.607 251.200 C 199.176 251.200,198.234 250.877,197.512 250.481 C 186.439 244.418,170.841 251.888,167.772 264.726 C 164.757 277.338,175.256 291.200,187.825 291.200 C 188.659 291.200,188.800 291.389,188.800 292.503 C 188.800 293.219,188.981 294.434,189.203 295.203 C 189.539 296.370,189.490 296.690,188.903 297.146 C 188.399 297.537,188.342 297.745,188.700 297.879 C 188.975 297.982,189.200 298.592,189.200 299.233 C 189.200 299.875,189.380 300.400,189.600 300.400 C 189.820 300.400,190.000 300.760,190.000 301.200 C 190.000 301.640,190.180 302.000,190.400 302.000 C 190.620 302.000,190.800 302.360,190.800 302.800 C 190.800 303.240,190.980 303.600,191.200 303.600 C 191.420 303.600,191.600 303.873,191.600 304.207 C 191.600 304.999,196.601 310.000,197.393 310.000 C 197.727 310.000,198.000 310.180,198.000 310.400 C 198.000 310.620,198.360 310.800,198.800 310.800 C 199.240 310.800,199.600 310.980,199.600 311.200 C 199.600 311.420,199.960 311.600,200.400 311.600 C 200.840 311.600,201.200 311.780,201.200 312.000 C 201.200 312.220,201.560 312.400,202.000 312.400 C 202.440 312.400,202.800 312.580,202.800 312.800 C 202.800 313.022,203.867 313.200,205.200 313.200 C 206.533 313.200,207.600 313.378,207.600 313.600 C 207.600 313.822,208.667 314.000,210.000 314.000 C 211.333 314.000,212.400 313.822,212.400 313.600 C 212.400 313.380,213.300 313.200,214.400 313.200 C 215.500 313.200,216.400 313.020,216.400 312.800 C 216.400 312.580,216.940 312.400,217.600 312.400 C 218.260 312.400,218.800 312.220,218.800 312.000 C 218.800 311.780,219.160 311.600,219.600 311.600 C 220.040 311.600,220.400 311.420,220.400 311.200 C 220.400 310.980,220.720 310.800,221.112 310.800 C 221.503 310.800,222.083 310.440,222.400 310.000 C 222.717 309.560,223.212 309.200,223.499 309.200 C 224.178 309.200,227.600 305.778,227.600 305.099 C 227.600 304.812,227.960 304.317,228.400 304.000 C 228.840 303.683,229.200 303.103,229.200 302.712 C 229.200 302.320,229.380 302.000,229.600 302.000 C 229.820 302.000,230.000 301.640,230.000 301.200 C 230.000 300.760,230.206 300.400,230.457 300.400 C 230.776 300.400,230.839 299.682,230.665 298.014 C 230.527 296.702,230.585 294.733,230.793 293.637 C 231.423 290.315,229.935 283.632,227.914 280.711 C 226.944 279.308,227.135 278.969,231.064 275.153 C 233.198 273.080,234.634 272.012,235.558 271.809 C 236.887 271.517,239.600 269.235,239.600 268.409 C 239.600 268.179,245.138 262.456,251.908 255.692 C 266.545 241.066,265.985 242.035,264.332 234.200 C 262.392 225.001,259.443 221.908,252.188 221.464 C 245.701 221.067,231.886 221.157,231.200 221.600 " stroke="none" fill="#0c2c54" fill-rule="evenodd"></path><path id="path2" d="M107.600 87.177 C 107.270 87.359,106.460 87.753,105.800 88.053 C 105.140 88.353,104.510 88.689,104.400 88.799 C 104.290 88.910,103.840 89.196,103.400 89.436 C 102.189 90.097,99.604 93.679,99.602 94.700 C 99.601 95.195,99.420 95.600,99.200 95.600 C 98.980 95.600,98.800 96.219,98.800 96.976 C 98.800 97.733,98.620 98.464,98.400 98.600 C 98.180 98.736,98.000 99.366,98.000 100.000 C 98.000 100.634,97.820 101.264,97.600 101.400 C 97.380 101.536,97.200 102.267,97.200 103.024 C 97.200 103.781,97.020 104.400,96.800 104.400 C 96.580 104.400,96.400 105.019,96.400 105.776 C 96.400 106.533,96.220 107.264,96.000 107.400 C 95.780 107.536,95.600 108.166,95.600 108.800 C 95.600 109.434,95.420 110.064,95.200 110.200 C 94.980 110.336,94.800 111.067,94.800 111.824 C 94.800 112.581,94.620 113.200,94.400 113.200 C 94.180 113.200,94.000 113.729,94.000 114.376 C 94.000 115.023,93.820 115.664,93.600 115.800 C 93.380 115.936,93.200 116.656,93.200 117.400 C 93.200 118.144,93.020 118.864,92.800 119.000 C 92.580 119.136,92.400 119.867,92.400 120.624 C 92.400 121.381,92.220 122.000,92.000 122.000 C 91.780 122.000,91.600 122.529,91.600 123.176 C 91.600 123.823,91.420 124.464,91.200 124.600 C 90.980 124.736,90.800 125.456,90.800 126.200 C 90.800 126.944,90.620 127.664,90.400 127.800 C 90.180 127.936,90.000 128.667,90.000 129.424 C 90.000 130.181,89.820 130.800,89.600 130.800 C 89.380 130.800,89.200 131.329,89.200 131.976 C 89.200 132.623,89.020 133.264,88.800 133.400 C 88.580 133.536,88.400 134.256,88.400 135.000 C 88.400 135.744,88.220 136.464,88.000 136.600 C 87.780 136.736,87.600 137.467,87.600 138.224 C 87.600 138.981,87.420 139.600,87.200 139.600 C 86.980 139.600,86.800 140.219,86.800 140.976 C 86.800 141.733,86.620 142.464,86.400 142.600 C 86.180 142.736,86.000 143.366,86.000 144.000 C 86.000 144.634,85.820 145.264,85.600 145.400 C 85.380 145.536,85.200 146.267,85.200 147.024 C 85.200 147.781,85.020 148.400,84.800 148.400 C 84.580 148.400,84.400 149.019,84.400 149.776 C 84.400 150.533,84.220 151.264,84.000 151.400 C 83.780 151.536,83.600 152.166,83.600 152.800 C 83.600 153.434,83.420 154.064,83.200 154.200 C 82.980 154.336,82.800 155.067,82.800 155.824 C 82.800 156.581,82.620 157.200,82.400 157.200 C 82.180 157.200,82.000 157.819,82.000 158.576 C 82.000 159.333,81.820 160.064,81.600 160.200 C 81.380 160.336,81.200 160.966,81.200 161.600 C 81.200 162.234,81.020 162.864,80.800 163.000 C 80.580 163.136,80.400 163.867,80.400 164.624 C 80.400 165.381,80.220 166.000,80.000 166.000 C 79.780 166.000,79.600 166.619,79.600 167.376 C 79.600 168.133,79.420 168.864,79.200 169.000 C 78.980 169.136,78.800 169.766,78.800 170.400 C 78.800 171.034,78.620 171.664,78.400 171.800 C 78.180 171.936,78.000 172.667,78.000 173.424 C 78.000 174.181,77.820 174.800,77.600 174.800 C 77.380 174.800,77.200 175.419,77.200 176.176 C 77.200 176.933,77.020 177.664,76.800 177.800 C 76.580 177.936,76.400 178.566,76.400 179.200 C 76.400 179.834,76.220 180.464,76.000 180.600 C 75.780 180.736,75.600 181.467,75.600 182.224 C 75.600 182.981,75.420 183.600,75.200 183.600 C 74.980 183.600,74.800 184.219,74.800 184.976 C 74.800 185.733,74.620 186.464,74.400 186.600 C 74.180 186.736,74.000 187.366,74.000 188.000 C 74.000 188.634,73.820 189.264,73.600 189.400 C 73.380 189.536,73.200 190.267,73.200 191.024 C 73.200 191.781,73.020 192.400,72.800 192.400 C 72.580 192.400,72.400 192.929,72.400 193.576 C 72.400 194.223,72.220 194.864,72.000 195.000 C 71.780 195.136,71.600 195.856,71.600 196.600 C 71.600 197.344,71.420 198.064,71.200 198.200 C 70.980 198.336,70.800 198.966,70.800 199.600 C 70.800 200.234,70.620 200.864,70.400 201.000 C 70.180 201.136,70.000 201.766,70.000 202.400 C 70.000 203.034,69.820 203.664,69.600 203.800 C 69.380 203.936,69.200 204.667,69.200 205.424 C 69.200 206.181,69.020 206.800,68.800 206.800 C 68.580 206.800,68.400 207.329,68.400 207.976 C 68.400 208.623,68.220 209.264,68.000 209.400 C 67.780 209.536,67.600 210.256,67.600 211.000 C 67.600 211.744,67.420 212.464,67.200 212.600 C 66.980 212.736,66.800 213.366,66.800 214.000 C 66.800 214.634,66.620 215.264,66.400 215.400 C 66.180 215.536,66.000 216.166,66.000 216.800 C 66.000 217.434,65.820 218.064,65.600 218.200 C 65.380 218.336,65.200 218.966,65.200 219.600 C 65.200 220.234,65.020 220.864,64.800 221.000 C 64.580 221.136,64.400 221.766,64.400 222.400 C 64.400 223.034,64.220 223.664,64.000 223.800 C 63.780 223.936,63.600 224.667,63.600 225.424 C 63.600 226.181,63.420 226.800,63.200 226.800 C 62.980 226.800,62.800 227.329,62.800 227.976 C 62.800 228.623,62.620 229.264,62.400 229.400 C 62.180 229.536,62.000 230.166,62.000 230.800 C 62.000 231.434,61.820 232.064,61.600 232.200 C 61.380 232.336,61.200 233.157,61.200 234.024 C 61.200 234.891,61.020 235.600,60.800 235.600 C 60.578 235.600,60.400 236.659,60.400 237.976 C 60.400 239.283,60.220 240.464,60.000 240.600 C 59.755 240.751,59.600 243.930,59.600 248.800 C 59.600 253.670,59.755 256.849,60.000 257.000 C 60.220 257.136,60.400 258.317,60.400 259.624 C 60.400 260.941,60.578 262.000,60.800 262.000 C 61.020 262.000,61.200 262.720,61.200 263.600 C 61.200 264.480,61.380 265.200,61.600 265.200 C 61.820 265.200,62.000 265.819,62.000 266.576 C 62.000 267.333,62.180 268.064,62.400 268.200 C 62.620 268.336,62.800 268.876,62.800 269.400 C 62.800 269.924,62.980 270.464,63.200 270.600 C 63.420 270.736,63.600 271.197,63.600 271.624 C 63.600 272.051,63.780 272.400,64.000 272.400 C 64.220 272.400,64.400 272.645,64.400 272.944 C 64.400 273.601,66.876 278.545,67.300 278.733 C 67.465 278.807,67.600 279.088,67.600 279.358 C 67.600 279.628,67.915 280.198,68.300 280.625 C 68.685 281.052,69.514 282.089,70.143 282.930 C 71.598 284.877,73.523 286.802,75.470 288.257 C 76.311 288.886,77.348 289.715,77.775 290.100 C 78.202 290.485,78.787 290.800,79.075 290.800 C 79.364 290.800,79.600 290.959,79.600 291.153 C 79.600 291.348,79.915 291.610,80.300 291.736 C 80.685 291.862,81.770 292.423,82.711 292.982 C 83.652 293.542,84.777 294.000,85.211 294.000 C 85.645 294.000,86.000 294.180,86.000 294.400 C 86.000 294.620,86.349 294.800,86.776 294.800 C 87.203 294.800,87.664 294.980,87.800 295.200 C 87.936 295.420,88.667 295.600,89.424 295.600 C 90.181 295.600,90.800 295.780,90.800 296.000 C 90.800 296.220,91.484 296.400,92.320 296.400 C 93.156 296.400,94.021 296.581,94.242 296.802 C 94.507 297.067,110.571 297.169,141.622 297.102 L 188.600 297.000 188.505 295.600 C 188.256 291.929,188.088 291.600,186.454 291.600 C 178.526 291.600,169.334 283.631,167.411 275.091 L 166.940 273.000 135.570 272.800 C 100.789 272.578,103.108 272.758,98.000 269.881 C 90.685 265.760,87.620 259.514,87.318 248.109 C 86.960 234.598,91.814 226.083,102.000 222.352 L 104.600 221.400 159.000 221.480 C 188.920 221.524,217.043 221.666,221.495 221.796 C 229.373 222.026,229.621 222.009,230.769 221.159 C 232.109 220.169,253.186 220.200,256.528 221.197 C 260.912 222.505,263.932 227.661,265.386 236.315 C 266.063 240.350,266.062 240.406,265.235 241.743 C 264.325 243.215,263.968 250.000,264.800 250.000 C 265.020 250.000,265.200 250.816,265.200 251.813 C 265.200 256.302,273.140 259.269,276.400 255.999 C 276.510 255.889,277.095 255.544,277.700 255.232 C 278.305 254.920,278.800 254.515,278.800 254.332 C 278.800 254.150,279.036 254.000,279.325 254.000 C 279.613 254.000,280.198 253.680,280.625 253.289 C 281.051 252.898,282.030 252.142,282.800 251.608 C 283.570 251.075,284.470 250.357,284.800 250.015 C 285.130 249.672,286.103 248.868,286.962 248.228 C 288.969 246.733,294.719 240.986,296.233 238.962 C 296.875 238.103,297.715 237.052,298.100 236.625 C 298.485 236.198,298.800 235.696,298.800 235.508 C 298.800 235.320,299.160 234.780,299.600 234.308 C 300.040 233.836,300.400 233.213,300.400 232.925 C 300.400 232.636,300.580 232.400,300.800 232.400 C 301.020 232.400,301.200 232.040,301.200 231.600 C 301.200 231.160,301.380 230.800,301.600 230.800 C 301.820 230.800,302.000 230.440,302.000 230.000 C 302.000 229.560,302.180 229.200,302.400 229.200 C 302.620 229.200,302.800 228.840,302.800 228.400 C 302.800 227.960,302.980 227.600,303.200 227.600 C 303.420 227.600,303.600 227.161,303.600 226.624 C 303.600 226.087,303.780 225.536,304.000 225.400 C 304.220 225.264,304.400 224.623,304.400 223.976 C 304.400 223.329,304.580 222.800,304.800 222.800 C 305.020 222.800,305.200 221.911,305.200 220.824 C 305.200 219.737,305.380 218.736,305.600 218.600 C 306.129 218.273,306.129 208.927,305.600 208.600 C 305.380 208.464,305.200 207.643,305.200 206.776 C 305.200 205.909,305.020 205.200,304.800 205.200 C 304.580 205.200,304.400 204.683,304.400 204.050 C 304.400 203.105,304.196 202.859,303.257 202.671 C 301.924 202.405,302.096 202.784,298.777 192.800 C 297.424 188.730,293.171 176.130,289.325 164.800 L 282.333 144.200 282.944 142.510 C 283.308 141.502,283.402 140.725,283.177 140.586 C 282.970 140.458,282.800 139.924,282.800 139.400 C 282.800 138.876,282.620 138.336,282.400 138.200 C 282.180 138.064,282.000 137.524,282.000 137.000 C 282.000 136.476,281.820 135.936,281.600 135.800 C 281.380 135.664,281.200 135.124,281.200 134.600 C 281.200 134.076,281.020 133.536,280.800 133.400 C 280.580 133.264,280.400 132.724,280.400 132.200 C 280.400 131.676,280.220 131.136,280.000 131.000 C 279.780 130.864,279.600 130.324,279.600 129.800 C 279.600 129.276,279.420 128.736,279.200 128.600 C 278.980 128.464,278.800 127.924,278.800 127.400 C 278.800 126.876,278.620 126.336,278.400 126.200 C 278.180 126.064,278.000 125.601,278.000 125.171 C 278.000 124.416,277.856 124.026,276.862 122.105 C 276.608 121.613,276.400 120.859,276.400 120.429 C 276.400 119.999,276.220 119.536,276.000 119.400 C 275.780 119.264,275.600 118.724,275.600 118.200 C 275.600 117.676,275.420 117.136,275.200 117.000 C 274.980 116.864,274.800 116.324,274.800 115.800 C 274.800 115.276,274.620 114.736,274.400 114.600 C 274.180 114.464,274.000 113.924,274.000 113.400 C 274.000 112.876,273.820 112.336,273.600 112.200 C 273.380 112.064,273.200 111.524,273.200 111.000 C 273.200 110.476,273.020 109.936,272.800 109.800 C 272.580 109.664,272.400 109.113,272.400 108.576 C 272.400 108.039,272.220 107.600,272.000 107.600 C 271.780 107.600,271.600 107.060,271.600 106.400 C 271.600 105.740,271.420 105.200,271.200 105.200 C 270.980 105.200,270.800 104.660,270.800 104.000 C 270.800 103.340,270.620 102.800,270.400 102.800 C 270.180 102.800,270.000 102.260,270.000 101.600 C 270.000 100.940,269.820 100.400,269.600 100.400 C 269.380 100.400,269.200 99.961,269.200 99.424 C 269.200 98.887,269.020 98.336,268.800 98.200 C 268.580 98.064,268.400 97.524,268.400 97.000 C 268.400 96.476,268.220 95.936,268.000 95.800 C 267.780 95.664,267.599 95.158,267.598 94.676 C 267.596 93.674,264.998 90.090,263.800 89.436 C 263.360 89.196,262.910 88.910,262.800 88.799 C 262.690 88.689,262.060 88.353,261.400 88.053 C 260.740 87.752,259.887 87.348,259.505 87.153 C 258.623 86.704,108.417 86.728,107.600 87.177 M239.425 116.026 C 241.190 117.868,241.130 120.792,239.294 122.433 L 237.987 123.600 184.248 123.600 L 130.509 123.600 129.499 122.590 C 127.920 121.011,127.404 119.439,127.996 118.010 C 128.267 117.356,128.943 116.366,129.499 115.810 L 130.509 114.800 184.380 114.800 L 238.250 114.800 239.425 116.026 M246.189 136.396 C 249.866 137.794,250.300 141.798,247.046 144.309 L 245.892 145.200 184.175 145.200 L 122.457 145.200 121.028 143.853 C 118.637 141.597,119.559 136.848,122.499 136.282 C 124.493 135.899,245.172 136.009,246.189 136.396 M256.572 160.147 C 258.487 161.953,258.590 164.324,256.844 166.415 L 255.688 167.800 228.276 167.800 L 200.864 167.800 199.864 166.860 C 197.569 164.704,197.541 162.379,199.784 160.136 L 201.120 158.800 228.132 158.800 L 255.143 158.800 256.572 160.147 M235.800 272.061 C 235.360 272.301,233.446 274.026,231.547 275.894 L 228.094 279.290 229.405 282.145 C 231.231 286.123,231.754 289.038,231.443 293.500 L 231.184 297.200 243.597 297.200 C 250.425 297.200,256.323 297.041,256.705 296.847 C 257.087 296.652,257.927 296.247,258.572 295.947 C 260.469 295.062,263.600 291.730,263.600 290.595 C 263.600 290.268,263.780 290.000,264.000 290.000 C 264.220 290.000,264.400 289.471,264.400 288.824 C 264.400 288.177,264.580 287.536,264.800 287.400 C 265.020 287.264,265.200 285.914,265.200 284.400 C 265.200 282.886,265.020 281.536,264.800 281.400 C 264.580 281.264,264.400 280.809,264.400 280.389 C 264.400 278.632,260.718 274.000,259.322 274.000 C 259.035 274.000,258.799 273.865,258.797 273.700 C 258.792 273.186,256.703 272.400,255.344 272.400 C 254.631 272.400,253.936 272.220,253.800 272.000 C 253.451 271.435,236.844 271.491,235.800 272.061 " stroke="none" fill="#1c73d3" fill-rule="evenodd"></path><path id="path3" d="M289.612 164.400 C 289.612 164.730,289.787 165.270,290.000 165.600 C 290.345 166.133,290.388 166.133,290.388 165.600 C 290.388 165.270,290.213 164.730,290.000 164.400 C 289.655 163.867,289.612 163.867,289.612 164.400 M290.412 166.800 C 290.412 167.130,290.587 167.670,290.800 168.000 C 291.145 168.533,291.188 168.533,291.188 168.000 C 291.188 167.670,291.013 167.130,290.800 166.800 C 290.455 166.267,290.412 166.267,290.412 166.800 M291.212 169.200 C 291.212 169.530,291.387 170.070,291.600 170.400 C 291.945 170.933,291.988 170.933,291.988 170.400 C 291.988 170.070,291.813 169.530,291.600 169.200 C 291.255 168.667,291.212 168.667,291.212 169.200 M292.012 171.600 C 292.012 171.930,292.187 172.470,292.400 172.800 C 292.745 173.333,292.788 173.333,292.788 172.800 C 292.788 172.470,292.613 171.930,292.400 171.600 C 292.055 171.067,292.012 171.067,292.012 171.600 M292.812 174.000 C 292.812 174.330,292.987 174.870,293.200 175.200 C 293.545 175.733,293.588 175.733,293.588 175.200 C 293.588 174.870,293.413 174.330,293.200 174.000 C 292.855 173.467,292.812 173.467,292.812 174.000 M293.612 176.400 C 293.612 176.730,293.787 177.270,294.000 177.600 C 294.345 178.133,294.388 178.133,294.388 177.600 C 294.388 177.270,294.213 176.730,294.000 176.400 C 293.655 175.867,293.612 175.867,293.612 176.400 M294.412 178.800 C 294.412 179.130,294.587 179.670,294.800 180.000 C 295.145 180.533,295.188 180.533,295.188 180.000 C 295.188 179.670,295.013 179.130,294.800 178.800 C 294.455 178.267,294.412 178.267,294.412 178.800 M295.212 181.200 C 295.212 181.530,295.387 182.070,295.600 182.400 C 295.945 182.933,295.988 182.933,295.988 182.400 C 295.988 182.070,295.813 181.530,295.600 181.200 C 295.255 180.667,295.212 180.667,295.212 181.200 M230.800 221.442 C 230.250 221.779,230.160 221.908,230.600 221.728 C 231.040 221.547,236.890 221.400,243.600 221.401 C 250.310 221.402,254.630 221.288,253.200 221.148 C 247.451 220.586,231.862 220.790,230.800 221.442 M258.022 222.732 C 260.129 224.073,260.450 224.437,262.001 227.250 C 263.361 229.718,263.616 229.598,262.357 227.084 C 261.362 225.097,259.433 222.959,257.920 222.166 C 256.089 221.207,256.149 221.540,258.022 222.732 M103.368 222.561 C 93.614 224.930,87.821 234.176,87.807 247.400 C 87.793 260.208,92.189 267.520,102.075 271.131 L 105.000 272.200 135.900 272.160 C 152.895 272.138,166.803 272.138,166.806 272.160 C 166.809 272.182,167.087 272.920,167.422 273.800 C 167.873 274.981,167.969 275.086,167.790 274.200 C 165.579 263.271,171.163 253.378,181.710 249.538 C 186.265 247.880,193.557 248.316,197.512 250.481 C 200.243 251.977,200.400 251.765,200.400 246.600 C 200.400 243.800,200.557 242.000,200.800 242.000 C 201.020 242.000,201.200 241.280,201.200 240.400 C 201.200 239.520,201.380 238.800,201.600 238.800 C 201.820 238.800,202.000 238.260,202.000 237.600 C 202.000 236.940,202.180 236.400,202.400 236.400 C 202.620 236.400,202.800 236.147,202.800 235.838 C 202.800 235.172,204.468 231.859,204.900 231.667 C 205.065 231.593,205.200 231.268,205.200 230.944 C 205.200 230.212,210.603 224.797,212.100 224.029 C 212.705 223.719,213.200 223.315,213.200 223.132 C 213.200 222.950,213.459 222.800,213.776 222.800 C 214.093 222.800,214.464 222.620,214.600 222.400 C 214.992 221.766,105.991 221.925,103.368 222.561 M263.212 230.000 C 263.212 230.330,263.387 230.870,263.600 231.200 C 263.945 231.733,263.988 231.733,263.988 231.200 C 263.988 230.870,263.813 230.330,263.600 230.000 C 263.255 229.467,263.212 229.467,263.212 230.000 M264.080 232.600 C 264.080 233.040,264.224 233.850,264.400 234.400 C 264.654 235.192,264.720 235.233,264.720 234.600 C 264.720 234.160,264.576 233.350,264.400 232.800 C 264.146 232.008,264.080 231.967,264.080 232.600 M264.964 238.902 C 264.989 240.784,265.106 241.369,265.348 240.830 C 265.551 240.382,265.536 239.247,265.313 238.128 L 264.929 236.200 264.964 238.902 M231.118 275.100 C 227.194 278.913,226.974 279.283,227.842 280.608 C 228.209 281.168,228.607 281.526,228.728 281.406 C 228.848 281.285,228.734 280.974,228.473 280.713 C 227.400 279.640,231.326 274.390,234.640 272.465 C 235.113 272.191,235.194 272.020,234.854 272.012 C 234.554 272.005,232.872 273.395,231.118 275.100 M168.805 278.113 C 168.791 279.016,170.983 282.469,172.795 284.400 L 174.860 286.600 173.130 284.510 C 172.179 283.361,170.817 281.381,170.105 280.110 C 169.392 278.840,168.807 277.941,168.805 278.113 M175.205 286.694 C 175.211 287.079,178.016 288.917,178.246 288.687 C 178.340 288.594,177.693 288.038,176.808 287.453 C 175.924 286.868,175.202 286.526,175.205 286.694 M230.463 287.000 C 230.454 287.440,230.595 288.520,230.777 289.400 L 231.108 291.000 231.114 289.600 C 231.117 288.830,230.976 287.750,230.800 287.200 C 230.541 286.391,230.477 286.353,230.463 287.000 M183.400 290.800 C 183.840 290.989,184.650 291.138,185.200 291.132 L 186.200 291.120 185.200 290.800 C 184.650 290.624,183.840 290.474,183.400 290.468 L 182.600 290.456 183.400 290.800 M230.615 294.615 C 230.461 295.854,230.424 296.957,230.534 297.067 C 230.644 297.177,230.861 296.254,231.015 295.015 C 231.170 293.777,231.207 292.673,231.097 292.563 C 230.987 292.453,230.770 293.377,230.615 294.615 M188.931 295.679 C 188.969 296.492,189.130 297.028,189.290 296.869 C 189.449 296.711,189.418 296.045,189.220 295.390 C 188.865 294.212,188.862 294.215,188.931 295.679 " stroke="none" fill="#144c94" fill-rule="evenodd"></path><path id="path4" d="M157.731 115.100 C 172.433 115.158,196.373 115.158,210.931 115.100 C 225.489 115.042,213.460 114.994,184.200 114.994 C 154.940 114.994,143.029 115.042,157.731 115.100 M157.900 123.500 C 172.475 123.558,196.325 123.558,210.900 123.500 C 225.475 123.442,213.550 123.394,184.400 123.394 C 155.250 123.394,143.325 123.442,157.900 123.500 " stroke="none" fill="#5494dc" fill-rule="evenodd"></path><path id="path5" d="M129.903 116.100 C 129.385 116.595,129.240 116.800,129.580 116.556 C 129.921 116.312,130.560 115.912,131.000 115.668 C 131.440 115.424,131.585 115.219,131.322 115.212 C 131.060 115.205,130.421 115.605,129.903 116.100 M239.256 116.945 C 239.539 117.575,239.842 117.873,239.931 117.606 C 240.020 117.340,239.789 116.824,239.418 116.461 C 238.786 115.842,238.776 115.873,239.256 116.945 M128.501 119.000 C 128.505 119.880,128.587 120.193,128.683 119.695 C 128.779 119.198,128.775 118.478,128.675 118.095 C 128.575 117.713,128.496 118.120,128.501 119.000 M239.275 121.228 C 238.991 121.684,238.183 122.307,237.479 122.612 C 236.473 123.050,236.381 123.172,237.045 123.184 C 237.868 123.200,240.000 121.439,240.000 120.745 C 240.000 120.217,239.840 120.324,239.275 121.228 M121.055 137.855 C 119.610 139.299,119.604 141.528,121.039 143.078 L 122.078 144.200 121.239 143.046 C 120.011 141.358,120.139 139.400,121.569 137.969 C 122.212 137.326,122.597 136.800,122.424 136.800 C 122.251 136.800,121.635 137.275,121.055 137.855 M245.633 136.921 C 245.725 136.988,246.340 137.376,247.000 137.783 L 248.200 138.524 247.438 137.662 C 247.019 137.188,246.404 136.800,246.071 136.800 C 245.739 136.800,245.542 136.854,245.633 136.921 M248.200 140.600 C 248.200 141.548,248.335 142.240,248.500 142.138 C 248.665 142.036,248.800 141.344,248.800 140.600 C 248.800 139.856,248.665 139.164,248.500 139.062 C 248.335 138.960,248.200 139.652,248.200 140.600 M122.662 144.500 C 122.902 144.888,245.252 144.882,245.862 144.494 C 246.116 144.332,218.458 144.200,184.400 144.200 C 150.342 144.200,122.560 144.335,122.662 144.500 M200.500 159.996 C 199.785 160.432,199.200 161.005,199.200 161.270 C 199.200 161.534,199.565 161.359,200.011 160.880 C 201.249 159.551,200.894 159.566,228.862 159.687 C 243.306 159.749,255.040 159.665,254.938 159.500 C 254.440 158.694,201.849 159.173,200.500 159.996 M256.244 160.780 C 256.488 161.121,256.888 161.760,257.132 162.200 C 257.376 162.640,257.581 162.785,257.588 162.522 C 257.595 162.260,257.195 161.621,256.700 161.103 C 256.205 160.585,256.000 160.440,256.244 160.780 M198.901 163.400 C 198.905 164.280,198.987 164.593,199.083 164.095 C 199.179 163.598,199.175 162.878,199.075 162.495 C 198.975 162.113,198.896 162.520,198.901 163.400 M257.037 164.594 C 256.895 165.161,256.198 165.979,255.489 166.411 C 254.780 166.843,254.481 167.198,254.825 167.199 C 256.011 167.201,258.155 164.422,257.485 163.751 C 257.381 163.648,257.180 164.027,257.037 164.594 M200.088 166.213 C 200.686 166.843,201.247 167.277,201.335 167.179 C 201.423 167.080,200.933 166.565,200.247 166.034 L 199.000 165.069 200.088 166.213 " stroke="none" fill="#8cbcec" fill-rule="evenodd"></path><path id="path6" d="M153.269 136.700 C 170.136 136.758,197.856 136.758,214.869 136.700 C 231.881 136.642,218.080 136.595,184.200 136.595 C 150.320 136.595,136.401 136.642,153.269 136.700 M214.700 167.500 C 222.015 167.561,233.985 167.561,241.300 167.500 C 248.615 167.439,242.630 167.389,228.000 167.389 C 213.370 167.389,207.385 167.439,214.700 167.500 " stroke="none" fill="#6fa1e4" fill-rule="evenodd"></path><path id="path7" d="M282.594 143.219 C 282.344 144.007,289.090 165.043,289.471 164.662 C 289.563 164.570,288.093 159.865,286.206 154.205 C 284.198 148.187,282.873 143.600,283.014 143.157 C 283.146 142.741,283.164 142.400,283.054 142.400 C 282.944 142.400,282.737 142.769,282.594 143.219 M295.398 182.600 C 297.650 189.580,301.749 201.513,302.057 201.984 C 302.378 202.474,302.407 202.437,302.200 201.800 C 299.638 193.926,295.835 182.860,295.533 182.400 C 295.228 181.935,295.198 181.981,295.398 182.600 M230.976 221.030 C 230.549 221.376,230.470 221.511,230.800 221.330 C 231.130 221.148,235.720 220.904,241.000 220.786 L 250.600 220.572 241.176 220.486 C 233.111 220.412,231.641 220.491,230.976 221.030 M253.840 221.208 C 257.016 221.543,257.966 221.934,260.017 223.747 C 261.040 224.652,260.973 224.537,259.778 223.336 C 257.925 221.473,256.023 220.778,253.000 220.857 C 251.184 220.904,251.262 220.936,253.840 221.208 M105.200 221.601 C 93.778 223.141,86.926 233.299,87.318 248.109 C 87.666 261.227,91.954 268.070,102.200 271.860 C 104.617 272.754,167.264 273.431,166.929 272.560 C 166.808 272.245,158.005 272.131,135.880 272.160 L 105.000 272.200 102.075 271.131 C 92.189 267.520,87.793 260.208,87.807 247.400 C 87.819 236.221,91.459 228.579,98.701 224.529 C 103.421 221.889,100.394 222.014,160.000 222.000 C 195.142 221.992,213.989 221.851,213.600 221.600 C 212.891 221.142,108.601 221.143,105.200 221.601 M262.720 227.981 C 263.298 229.290,263.842 230.292,263.927 230.206 C 264.113 230.020,262.126 225.600,261.856 225.600 C 261.752 225.600,262.141 226.671,262.720 227.981 M264.068 231.200 C 264.088 232.239,264.718 233.946,264.732 233.000 C 264.738 232.560,264.589 231.840,264.400 231.400 C 264.189 230.910,264.061 230.832,264.068 231.200 M264.893 235.000 C 264.894 235.660,265.032 236.740,265.200 237.400 C 265.623 239.063,265.642 237.426,265.223 235.400 C 264.945 234.055,264.892 233.991,264.893 235.000 M265.600 239.626 C 265.600 240.081,265.410 240.846,265.178 241.326 C 264.770 242.170,264.777 242.174,265.378 241.424 C 265.952 240.706,266.259 238.800,265.800 238.800 C 265.690 238.800,265.600 239.172,265.600 239.626 M231.175 275.625 C 229.383 277.398,227.989 278.923,228.079 279.012 C 228.169 279.102,229.759 277.651,231.612 275.788 C 233.466 273.924,234.859 272.400,234.708 272.400 C 234.558 272.400,232.968 273.851,231.175 275.625 M167.438 274.983 C 167.661 276.521,169.745 281.600,170.153 281.600 C 170.264 281.600,169.890 280.583,169.321 279.340 C 168.752 278.097,168.044 276.252,167.748 275.240 C 167.218 273.432,167.213 273.427,167.438 274.983 M171.487 283.400 C 172.718 284.990,175.200 287.512,175.200 287.172 C 175.200 287.075,174.086 285.826,172.724 284.397 C 171.362 282.969,170.806 282.520,171.487 283.400 M229.806 283.600 C 230.520 286.458,231.200 288.258,230.979 286.705 C 230.861 285.883,230.494 284.623,230.161 283.905 C 229.736 282.989,229.631 282.898,229.806 283.600 M231.337 291.400 C 231.339 293.160,231.409 293.830,231.493 292.889 C 231.578 291.949,231.577 290.509,231.491 289.689 C 231.405 288.870,231.336 289.640,231.337 291.400 M182.200 290.800 C 182.640 290.989,183.270 291.144,183.600 291.144 C 183.978 291.144,183.904 291.017,183.400 290.800 C 182.960 290.611,182.330 290.456,182.000 290.456 C 181.622 290.456,181.696 290.583,182.200 290.800 M186.086 291.493 C 187.914 291.638,187.979 291.688,188.213 293.121 C 188.620 295.624,188.706 295.846,188.754 294.526 C 188.848 291.935,188.244 291.192,186.110 291.272 L 184.200 291.344 186.086 291.493 " stroke="none" fill="#1457a3" fill-rule="evenodd"></path><path id="path8" d="M153.700 136.300 C 170.585 136.358,198.215 136.358,215.100 136.300 C 231.985 136.242,218.170 136.195,184.400 136.195 C 150.630 136.195,136.815 136.242,153.700 136.300 M248.600 140.600 C 248.600 141.768,248.735 142.640,248.900 142.538 C 249.065 142.436,249.200 141.564,249.200 140.600 C 249.200 139.636,249.065 138.764,248.900 138.662 C 248.735 138.560,248.600 139.432,248.600 140.600 M122.341 144.901 C 122.507 145.067,150.443 145.157,184.421 145.101 L 246.200 145.000 184.120 144.800 C 149.976 144.690,122.176 144.736,122.341 144.901 M210.600 159.092 C 235.475 159.368,255.507 159.372,255.338 159.100 C 255.236 158.935,242.968 158.842,228.076 158.893 C 213.184 158.943,205.320 159.033,210.600 159.092 M199.688 166.613 C 200.286 167.243,200.847 167.677,200.935 167.579 C 201.023 167.480,200.533 166.965,199.847 166.434 L 198.600 165.469 199.688 166.613 M256.583 166.428 C 256.437 166.663,255.932 167.012,255.459 167.203 C 254.873 167.439,254.803 167.557,255.238 167.575 C 255.589 167.589,256.202 167.240,256.600 166.800 C 256.998 166.360,257.217 166.000,257.086 166.000 C 256.954 166.000,256.728 166.193,256.583 166.428 M215.129 167.900 C 222.460 167.961,234.340 167.961,241.529 167.900 C 248.718 167.839,242.720 167.789,228.200 167.789 C 213.680 167.789,207.798 167.839,215.129 167.900 " stroke="none" fill="#448cdc" fill-rule="evenodd"></path></g></svg>